<?xml version="1.0" encoding="UTF-8" standalone="no"?>
<svg
   xmlns:dc="http://purl.org/dc/elements/1.1/"
   xmlns:cc="http://creativecommons.org/ns#"
   xmlns:rdf="http://www.w3.org/1999/02/22-rdf-syntax-ns#"
   xmlns:svg="http://www.w3.org/2000/svg"
   xmlns="http://www.w3.org/2000/svg"
   xmlns:sodipodi="http://sodipodi.sourceforge.net/DTD/sodipodi-0.dtd"
   xmlns:inkscape="http://www.inkscape.org/namespaces/inkscape"
   inkscape:export-ydpi="300"
   inkscape:export-xdpi="300"
   inkscape:export-filename="/Users/lucacorsato/Documents/osd/website/lc/static/image_lucacorsato.png"
   width="900"
   height="600"
   viewBox="0 0 238.12499 158.75"
   version="1.1"
   id="svg870"
   inkscape:version="1.0beta2 (2b71d25, 2019-12-03)"
   sodipodi:docname="image_lucacorsato.svg">
  <defs
     id="defs864" />
  <sodipodi:namedview
     id="base"
     pagecolor="#ffffff"
     bordercolor="#666666"
     borderopacity="1.0"
     inkscape:pageopacity="0.0"
     inkscape:pageshadow="2"
     inkscape:zoom="0.49497475"
     inkscape:cx="252.78025"
     inkscape:cy="460.99485"
     inkscape:document-units="mm"
     inkscape:current-layer="layer1"
     inkscape:document-rotation="0"
     showgrid="false"
     units="px"
     inkscape:window-width="1600"
     inkscape:window-height="880"
     inkscape:window-x="0"
     inkscape:window-y="23"
     inkscape:window-maximized="0" />
  <metadata
     id="metadata867">
    <rdf:RDF>
      <cc:Work
         rdf:about="">
        <dc:format>image/svg+xml</dc:format>
        <dc:type
           rdf:resource="http://purl.org/dc/dcmitype/StillImage" />
        <dc:title />
      </cc:Work>
    </rdf:RDF>
  </metadata>
  <g
     inkscape:label="Livello 1"
     inkscape:groupmode="layer"
     id="layer1">
    <rect
       style="fill:#fffff8;fill-opacity:1;stroke:none;stroke-width:0"
       id="rect1433"
       width="238.125"
       height="158.75"
       x="-3.1974423e-14"
       y="-1.7763568e-14" />
    <path
       d="m 80.979052,68.196339 q -0.297657,2.546617 -1.885158,3.935681 -1.576478,1.37804 -4.200265,1.37804 -2.844274,0 -4.564067,-2.039499 -1.708769,-2.039498 -1.708769,-5.457036 V 64.47012 q 0,-2.237936 0.79375,-3.935681 0.804776,-1.697745 2.27101,-2.601739 1.466234,-0.915018 3.395489,-0.915018 2.557642,0 4.101046,1.433161 1.543404,1.422137 1.796964,3.946706 h -2.127693 q -0.275608,-1.918231 -1.201651,-2.778128 -0.915018,-0.859897 -2.568666,-0.859897 -2.028474,0 -3.186027,1.499307 -1.146529,1.499307 -1.146529,4.266411 v 1.554429 q 0,2.612763 1.091407,4.156167 1.091407,1.543404 3.053736,1.543404 1.763891,0 2.700957,-0.793751 0.948092,-0.804775 1.256773,-2.789152 z"
       style="font-style:normal;font-variant:normal;font-weight:normal;font-stretch:normal;font-size:22.5778px;line-height:1.25;font-family:Roboto;-inkscape-font-specification:Roboto;fill:#000000;fill-opacity:1;stroke:none;stroke-width:0.264583"
       id="path917"
       inkscape:connector-curvature="0" />
    <path
       d="M 85.752581,73.289574 H 83.713082 V 61.361263 h 2.039499 z m -2.204863,-15.09229 q 0,-0.496094 0.297656,-0.837848 0.308681,-0.341754 0.903994,-0.341754 0.595313,0 0.903994,0.341754 0.308681,0.341754 0.308681,0.837848 0,0.496094 -0.308681,0.826824 -0.308681,0.330729 -0.903994,0.330729 -0.595313,0 -0.903994,-0.330729 -0.297656,-0.33073 -0.297656,-0.826824 z"
       style="font-style:normal;font-variant:normal;font-weight:normal;font-stretch:normal;font-size:22.5778px;line-height:1.25;font-family:Roboto;-inkscape-font-specification:Roboto;fill:#000000;fill-opacity:1;stroke:none;stroke-width:0.264583"
       id="path919"
       inkscape:connector-curvature="0" />
    <path
       d="m 96.368997,73.289574 q -0.176389,-0.352778 -0.286632,-1.256772 -1.422137,1.477258 -3.395489,1.477258 -1.763891,0 -2.899396,-0.992189 -1.12448,-1.003212 -1.12448,-2.535592 0,-1.86311 1.411113,-2.888371 1.422136,-1.036286 3.990802,-1.036286 h 1.984377 v -0.937067 q 0,-1.069359 -0.63941,-1.697745 -0.63941,-0.63941 -1.885158,-0.63941 -1.091408,0 -1.830037,0.551216 -0.738629,0.551215 -0.738629,1.333942 h -2.050523 q 0,-0.89297 0.628386,-1.719793 0.63941,-0.837849 1.719793,-1.322918 1.091408,-0.48507 2.392277,-0.48507 2.061547,0 3.230125,1.036285 1.168578,1.025262 1.212675,2.83325 v 5.49011 q 0,1.642623 0.418924,2.612763 v 0.176389 z m -3.384465,-1.554429 q 0.959116,0 1.819012,-0.496094 0.859897,-0.496095 1.245748,-1.289845 v -2.447399 h -1.598526 q -3.748267,0 -3.748267,2.193839 0,0.959116 0.63941,1.499307 0.63941,0.540192 1.642623,0.540192 z"
       style="font-style:normal;font-variant:normal;font-weight:normal;font-stretch:normal;font-size:22.5778px;line-height:1.25;font-family:Roboto;-inkscape-font-specification:Roboto;fill:#000000;fill-opacity:1;stroke:none;stroke-width:0.264583"
       id="path921"
       inkscape:connector-curvature="0" />
    <path
       d="m 100.7677,67.215175 q 0,-1.752866 0.68351,-3.152954 0.69453,-1.400089 1.91823,-2.160767 1.23472,-0.760677 2.8112,-0.760677 2.43637,0 3.93568,1.68672 1.51033,1.686721 1.51033,4.486897 v 0.143316 q 0,1.741842 -0.67248,3.130906 -0.66146,1.37804 -1.90721,2.149742 -1.23472,0.771702 -2.84427,0.771702 -2.42535,0 -3.93568,-1.68672 -1.49931,-1.686721 -1.49931,-4.464849 z m 2.05052,0.242535 q 0,1.984377 0.91502,3.186028 0.92604,1.20165 2.46945,1.20165 1.55443,0 2.46945,-1.212675 0.91501,-1.223699 0.91501,-3.417538 0,-1.962328 -0.93706,-3.175003 -0.92605,-1.223699 -2.46945,-1.223699 -1.51033,0 -2.43637,1.20165 -0.92605,1.201651 -0.92605,3.439587 z"
       style="font-style:normal;font-variant:normal;font-weight:normal;font-stretch:normal;font-size:22.5778px;line-height:1.25;font-family:Roboto;-inkscape-font-specification:Roboto;fill:#000000;fill-opacity:1;stroke:none;stroke-width:0.264583"
       id="path923"
       inkscape:connector-curvature="0" />
    <path
       d="m 75.797623,98.347846 q 0,-0.826824 -0.628386,-1.278821 -0.617362,-0.463021 -2.171791,-0.793751 -1.543404,-0.330729 -2.458422,-0.793751 -0.903994,-0.463021 -1.344967,-1.102431 -0.429948,-0.639411 -0.429948,-1.521356 0,-1.466234 1.234723,-2.480471 1.245748,-1.014237 3.175003,-1.014237 2.028475,0 3.285247,1.04731 1.267796,1.04731 1.267796,2.678909 h -2.050523 q 0,-0.837848 -0.71658,-1.444186 -0.705557,-0.606337 -1.78594,-0.606337 -1.113456,0 -1.741842,0.48507 -0.628386,0.48507 -0.628386,1.267796 0,0.738629 0.584289,1.113456 0.584289,0.374827 2.105645,0.716581 1.53238,0.341753 2.480471,0.815799 0.948091,0.474046 1.400088,1.146529 0.463021,0.661459 0.463021,1.620575 0,1.598526 -1.27882,2.56867 -1.278821,0.95911 -3.31832,0.95911 -1.433161,0 -2.535593,-0.50712 -1.102431,-0.50712 -1.730817,-1.41111 -0.617362,-0.915018 -0.617362,-1.973353 h 2.039499 q 0.05512,1.025262 0.815799,1.631599 0.771702,0.595314 2.028474,0.595314 1.157554,0 1.852086,-0.463022 0.705556,-0.474046 0.705556,-1.256772 z"
       style="font-style:normal;font-variant:normal;font-weight:normal;font-stretch:normal;font-size:22.5778px;line-height:1.25;font-family:Roboto;-inkscape-font-specification:Roboto;fill:#000000;fill-opacity:1;stroke:none;stroke-width:0.264583"
       id="path925"
       inkscape:connector-curvature="0" />
    <path
       d="m 79.953791,95.437426 q 0,-1.752866 0.683507,-3.152955 0.694532,-1.400088 1.918231,-2.160766 1.234724,-0.760677 2.811201,-0.760677 2.436374,0 3.935681,1.68672 1.510332,1.68672 1.510332,4.486897 v 0.143316 q 0,1.741842 -0.672484,3.130906 -0.661459,1.378043 -1.907207,2.149743 -1.234723,0.7717 -2.844273,0.7717 -2.42535,0 -3.935681,-1.68672 -1.499307,-1.68672 -1.499307,-4.464848 z m 2.050522,0.242535 q 0,1.984377 0.915019,3.186028 0.926042,1.201651 2.469447,1.201651 1.554428,0 2.469447,-1.212676 0.915018,-1.223699 0.915018,-3.417538 0,-1.962328 -0.937067,-3.175003 -0.926043,-1.223699 -2.469447,-1.223699 -1.510331,0 -2.436374,1.20165 -0.926043,1.201651 -0.926043,3.439587 z"
       style="font-style:normal;font-variant:normal;font-weight:normal;font-stretch:normal;font-size:22.5778px;line-height:1.25;font-family:Roboto;-inkscape-font-specification:Roboto;fill:#000000;fill-opacity:1;stroke:none;stroke-width:0.264583"
       id="path927"
       inkscape:connector-curvature="0" />
    <path
       d="m 95.29964,89.583514 0.06615,1.499307 q 1.367016,-1.719793 3.571879,-1.719793 3.781341,0 3.814411,4.26641 v 7.882382 h -2.0395 v -7.893406 q -0.011,-1.289845 -0.59531,-1.907207 -0.573264,-0.617362 -1.796963,-0.617362 -0.992188,0 -1.741842,0.529167 -0.749653,0.529168 -1.168577,1.389064 v 8.499744 H 93.370385 V 89.583514 Z"
       style="font-style:normal;font-variant:normal;font-weight:normal;font-stretch:normal;font-size:22.5778px;line-height:1.25;font-family:Roboto;-inkscape-font-specification:Roboto;fill:#000000;fill-opacity:1;stroke:none;stroke-width:0.264583"
       id="path929"
       inkscape:connector-curvature="0" />
    <path
       d="m 105.30972,95.437426 q 0,-1.752866 0.68351,-3.152955 0.69453,-1.400088 1.91823,-2.160766 1.23472,-0.760677 2.8112,-0.760677 2.43637,0 3.93568,1.68672 1.51033,1.68672 1.51033,4.486897 v 0.143316 q 0,1.741842 -0.67248,3.130906 -0.66146,1.378043 -1.90721,2.149743 -1.23472,0.7717 -2.84427,0.7717 -2.42535,0 -3.93568,-1.68672 -1.49931,-1.68672 -1.49931,-4.464848 z m 2.05052,0.242535 q 0,1.984377 0.91502,3.186028 0.92604,1.201651 2.46945,1.201651 1.55443,0 2.46945,-1.212676 0.91501,-1.223699 0.91501,-3.417538 0,-1.962328 -0.93706,-3.175003 -0.92605,-1.223699 -2.46945,-1.223699 -1.51033,0 -2.43637,1.20165 -0.92605,1.201651 -0.92605,3.439587 z"
       style="font-style:normal;font-variant:normal;font-weight:normal;font-stretch:normal;font-size:22.5778px;line-height:1.25;font-family:Roboto;-inkscape-font-specification:Roboto;fill:#000000;fill-opacity:1;stroke:none;stroke-width:0.264583"
       id="path931"
       inkscape:connector-curvature="0" />
    <path
       d="m 126.77406,99.781007 h 7.60678 v 1.730813 h -9.73447 V 85.460419 h 2.12769 z"
       style="font-style:normal;font-variant:normal;font-weight:normal;font-stretch:normal;font-size:22.5778px;line-height:1.25;font-family:Roboto;-inkscape-font-specification:Roboto;fill:#000000;fill-opacity:1;stroke:none;stroke-width:0.264583"
       id="path933"
       inkscape:connector-curvature="0" />
    <path
       d="m 143.37669,100.33222 q -1.19063,1.40009 -3.49471,1.40009 -1.90721,0 -2.91042,-1.10243 -0.99219,-1.113457 -1.00321,-3.285247 v -7.761119 h 2.0395 v 7.705997 q 0,2.711979 2.20486,2.711979 2.33715,0 3.10886,-1.741839 v -8.676137 h 2.03949 v 11.928306 h -1.94027 z"
       style="font-style:normal;font-variant:normal;font-weight:normal;font-stretch:normal;font-size:22.5778px;line-height:1.25;font-family:Roboto;-inkscape-font-specification:Roboto;fill:#000000;fill-opacity:1;stroke:none;stroke-width:0.264583"
       id="path935"
       inkscape:connector-curvature="0" />
    <path
       d="m 153.23242,100.06764 q 1.09141,0 1.90721,-0.66146 0.8158,-0.661459 0.90399,-1.653647 h 1.92926 q -0.0551,1.025261 -0.70556,1.951304 -0.65043,0.926043 -1.74184,1.477263 -1.08038,0.55121 -2.29306,0.55121 -2.43637,0 -3.88056,-1.62057 -1.43316,-1.631603 -1.43316,-4.453828 v -0.341753 q 0,-1.741842 0.63941,-3.097833 0.63941,-1.355991 1.83004,-2.105645 1.20165,-0.749653 2.83325,-0.749653 2.00642,0 3.32934,1.20165 1.33394,1.201651 1.42214,3.119882 h -1.92926 q -0.0882,-1.157554 -0.88194,-1.896183 -0.78273,-0.749653 -1.94028,-0.749653 -1.55443,0 -2.41433,1.12448 -0.84887,1.113456 -0.84887,3.230125 v 0.385851 q 0,2.061547 0.84887,3.175003 0.84888,1.113457 2.42535,1.113457 z"
       style="font-style:normal;font-variant:normal;font-weight:normal;font-stretch:normal;font-size:22.5778px;line-height:1.25;font-family:Roboto;-inkscape-font-specification:Roboto;fill:#000000;fill-opacity:1;stroke:none;stroke-width:0.264583"
       id="path937"
       inkscape:connector-curvature="0" />
    <path
       d="m 167.63018,101.51182 q -0.17639,-0.35277 -0.28663,-1.25677 -1.42214,1.47726 -3.39549,1.47726 -1.76389,0 -2.89939,-0.99219 -1.12449,-1.00321 -1.12449,-2.53559 0,-1.86311 1.41112,-2.888371 1.42213,-1.036286 3.9908,-1.036286 h 1.98438 v -0.937067 q 0,-1.069359 -0.63941,-1.697745 -0.63941,-0.63941 -1.88516,-0.63941 -1.09141,0 -1.83004,0.551216 -0.73863,0.551215 -0.73863,1.333942 h -2.05052 q 0,-0.89297 0.62839,-1.719794 0.63941,-0.837848 1.71979,-1.322918 1.09141,-0.485069 2.39228,-0.485069 2.06154,0 3.23012,1.036285 1.16858,1.025262 1.21268,2.83325 v 5.490109 q 0,1.642628 0.41892,2.612768 v 0.17638 z m -3.38446,-1.554424 q 0.95911,0 1.81901,-0.496094 0.8599,-0.496095 1.24575,-1.289845 v -2.447399 h -1.59853 q -3.74827,0 -3.74827,2.193839 0,0.959116 0.63941,1.499307 0.63941,0.540192 1.64263,0.540192 z"
       style="font-style:normal;font-variant:normal;font-weight:normal;font-stretch:normal;font-size:22.5778px;line-height:1.25;font-family:Roboto;-inkscape-font-specification:Roboto;fill:#000000;fill-opacity:1;stroke:none;stroke-width:0.264583"
       id="path939"
       inkscape:connector-curvature="0" />
    <path
       style="fill:#e6e6e6;stroke:#000000;stroke-width:0;stroke-linecap:butt;stroke-linejoin:miter;stroke-miterlimit:4;stroke-dasharray:none;stroke-opacity:1"
       d="m 153.36473,57.105894 h 8.20207 l -8.20207,8.202078 v 8.202087 L 169.7689,57.105894 v 8.202078 l -8.2021,8.202087 h 8.2021 z"
       id="path835"
       inkscape:connector-curvature="0" />
  </g>
</svg>
